<?xml version="1.0" encoding="UTF-8"?>
<svg version="1.1" xmlns="http://www.w3.org/2000/svg" width="57" height="56">
<path d="M0 0 C7.01365685 4.12500082 12.20547014 9.61127972 14.6875 17.4375 C16.57055108 26.26199426 15.50561259 33.93380479 11.140625 41.8359375 C7.28227812 47.50412751 2.17761796 51.0256326 -4.375 53.0625 C-7.20150688 53.48334605 -9.95820518 53.53990904 -12.8125 53.5 C-13.93736816 53.48972778 -13.93736816 53.48972778 -15.08496094 53.47924805 C-22.35589828 53.26758862 -26.5714281 51.54748418 -32.125 46.625 C-32.8675 45.779375 -33.61 44.93375 -34.375 44.0625 C-35.096875 43.258125 -35.81875 42.45375 -36.5625 41.625 C-41.37562206 34.82024122 -40.98230342 27.06956202 -40.375 19.0625 C-39.70741293 16.25083766 -38.86485293 14.61653359 -37.375 12.0625 C-36.818125 11.051875 -36.26125 10.04125 -35.6875 9 C-27.17508462 -1.81306819 -12.83223082 -5.76059898 0 0 Z " fill="#6B5A33" transform="translate(41.375,2.9375)"/>
<path d="M0 0 C7.01365685 4.12500082 12.20547014 9.61127972 14.6875 17.4375 C16.57055108 26.26199426 15.50561259 33.93380479 11.140625 41.8359375 C7.28227812 47.50412751 2.17761796 51.0256326 -4.375 53.0625 C-7.20150688 53.48334605 -9.95820518 53.53990904 -12.8125 53.5 C-13.93736816 53.48972778 -13.93736816 53.48972778 -15.08496094 53.47924805 C-22.35589828 53.26758862 -26.5714281 51.54748418 -32.125 46.625 C-32.8675 45.779375 -33.61 44.93375 -34.375 44.0625 C-35.096875 43.258125 -35.81875 42.45375 -36.5625 41.625 C-41.37562206 34.82024122 -40.98230342 27.06956202 -40.375 19.0625 C-39.70741293 16.25083766 -38.86485293 14.61653359 -37.375 12.0625 C-36.818125 11.051875 -36.26125 10.04125 -35.6875 9 C-27.17508462 -1.81306819 -12.83223082 -5.76059898 0 0 Z M-33.375 9.0625 C-38.48559238 16.31577701 -40.2963167 22.125728 -39.375 31.0625 C-37.33037401 38.53893359 -32.73535054 44.97898517 -26.4140625 49.44921875 C-19.34826143 53.19225463 -10.59559713 53.48095806 -2.9453125 51.40234375 C3.29661227 48.59712075 8.04956344 43.65434725 11.5625 37.875 C12.86060038 34.93993583 12.86060038 34.93993583 12.625 31.0625 C11.965 30.7325 11.305 30.4025 10.625 30.0625 C9.965 29.7325 9.305 29.4025 8.625 29.0625 C8 26 8 26 7.625 23.0625 C7.295 23.0625 6.965 23.0625 6.625 23.0625 C6.625 25.0425 6.625 27.0225 6.625 29.0625 C5.635 29.5575 5.635 29.5575 4.625 30.0625 C4.83125 30.949375 5.0375 31.83625 5.25 32.75 C5.65050239 36.2877711 5.19183516 37.92882967 3.625 41.0625 C1.975 41.0625 0.325 41.0625 -1.375 41.0625 C-1.808125 41.990625 -1.808125 41.990625 -2.25 42.9375 C-3.375 45.0625 -3.375 45.0625 -5.375 47.0625 C-6.70833333 47.0625 -8.04166667 47.0625 -9.375 47.0625 C-9.87 44.5875 -9.87 44.5875 -10.375 42.0625 C-8.065 41.0725 -5.755 40.0825 -3.375 39.0625 C-3.375 38.4025 -3.375 37.7425 -3.375 37.0625 C-2.055 36.4025 -0.735 35.7425 0.625 35.0625 C-2.375 33.72916667 -2.375 33.72916667 -5.375 35.0625 C-6.74695574 36.35605827 -8.08682656 37.68548702 -9.375 39.0625 C-15.25 34.3125 -15.25 34.3125 -16.375 32.0625 C-15.281875 32.165625 -14.18875 32.26875 -13.0625 32.375 C-11.2371875 32.2203125 -11.2371875 32.2203125 -9.375 32.0625 C-7.78259341 29.82691969 -7.78259341 29.82691969 -6.375 27.0625 C-4.64453125 25.79296875 -4.64453125 25.79296875 -2.6875 24.5625 C-0.83978488 23.39904506 -0.83978488 23.39904506 0.625 22.0625 C1.21268383 19.34778995 1.21268383 19.34778995 0.625 17.0625 C-2.40787735 16.8336036 -5.34972813 16.70119302 -8.375 17.0625 C-10.30711944 18.88687884 -10.30711944 18.88687884 -11.375 21.0625 C-12.365 21.3925 -13.355 21.7225 -14.375 22.0625 C-13.9109375 20.9178125 -13.9109375 20.9178125 -13.4375 19.75 C-12.69606407 17.87460323 -12.01271783 15.97565348 -11.375 14.0625 C-11.849375 13.44375 -12.32375 12.825 -12.8125 12.1875 C-14.7078954 9.60976225 -14.63543988 8.18777858 -14.375 5.0625 C-12.71885343 4.68031233 -11.05042976 4.34854898 -9.375 4.0625 C-9.045 4.3925 -8.715 4.7225 -8.375 5.0625 C-7.5396875 4.753125 -7.5396875 4.753125 -6.6875 4.4375 C-3.21530617 3.87444154 -1.33172187 5.30104868 1.625 7.0625 C3.5 8.5625 3.5 8.5625 4.625 10.0625 C4.625 11.0525 4.625 12.0425 4.625 13.0625 C5.615 12.7325 6.605 12.4025 7.625 12.0625 C7.625 12.7225 7.625 13.3825 7.625 14.0625 C6.965 14.3925 6.305 14.7225 5.625 15.0625 C6.285 15.7225 6.945 16.3825 7.625 17.0625 C8.12 16.5675 8.12 16.5675 8.625 16.0625 C9.285 17.7125 9.945 19.3625 10.625 21.0625 C11.285 21.0625 11.945 21.0625 12.625 21.0625 C12.31148929 14.94904116 9.48633212 10.62055074 5.625 6.0625 C0.44690408 1.46095678 -4.59012747 0.24775249 -11.375 0.0625 C-12.50808594 -0.0303125 -12.50808594 -0.0303125 -13.6640625 -0.125 C-22.000745 -0.5833743 -28.02488594 2.7002022 -33.375 9.0625 Z " fill="#82784E" transform="translate(41.375,2.9375)"/>
<path d="M0 0 C5.87170139 3.42922993 9.8168377 8.77592704 12.4375 15 C12.4375 16.32 12.4375 17.64 12.4375 19 C11.7775 19 11.1175 19 10.4375 19 C9.7775 17.35 9.1175 15.7 8.4375 14 C7.4475 14.495 7.4475 14.495 6.4375 15 C5.9425 13.515 5.9425 13.515 5.4375 12 C6.0975 12 6.7575 12 7.4375 12 C7.4375 11.34 7.4375 10.68 7.4375 10 C6.4475 10.33 5.4575 10.66 4.4375 11 C4.375625 10.4225 4.31375 9.845 4.25 9.25 C3.09176021 6.04256673 1.22609442 4.88067996 -1.5625 3 C-4.12374846 2.09602995 -5.8091497 2 -8.5625 2 C-8.8925 2 -9.2225 2 -9.5625 2 C-11.23071323 2.32550502 -12.89749557 2.65846063 -14.5625 3 C-14.96999675 7.25731568 -14.96999675 7.25731568 -13.0625 10.875 C-12.5675 11.24625 -12.0725 11.6175 -11.5625 12 C-12.46793849 14.71631546 -13.48724806 17.34771188 -14.5625 20 C-15.2225 19.34 -15.8825 18.68 -16.5625 18 C-16.5625 17.01 -16.5625 16.02 -16.5625 15 C-19.5325 15.33 -22.5025 15.66 -25.5625 16 C-25.61417527 18.42267086 -25.61417527 18.42267086 -24.5625 21 C-22.24441636 22.03485877 -19.91074702 23.0355414 -17.5625 24 C-16.625 26.1875 -16.625 26.1875 -16.5625 28 C-18.2125 28.33 -19.8625 28.66 -21.5625 29 C-21.5625 29.99 -21.5625 30.98 -21.5625 32 C-23.0475 32.495 -23.0475 32.495 -24.5625 33 C-24.2325 33.99 -23.9025 34.98 -23.5625 36 C-23.2325 36.99 -22.9025 37.98 -22.5625 39 C-23.366875 39.144375 -24.17125 39.28875 -25 39.4375 C-27.48353706 39.74135249 -27.48353706 39.74135249 -28.5625 41 C-29.5525 40.67 -30.5425 40.34 -31.5625 40 C-33.0102922 37.10441559 -33.5625 35.25811062 -33.5625 32 C-33.7275 31.278125 -33.8925 30.55625 -34.0625 29.8125 C-34.71293931 26.15377889 -34.62546614 22.71500247 -34.5625 19 C-34.8925 21.64 -35.2225 24.28 -35.5625 27 C-35.8925 27 -36.2225 27 -36.5625 27 C-37.07876245 19.87271013 -36.36633192 16.01250851 -32.5625 10 C-32.8925 9.01 -33.2225 8.02 -33.5625 7 C-24.84961943 -2.80199064 -12.31743414 -5.49719073 0 0 Z " fill="#755E33" transform="translate(41.5625,5)"/>
<path d="M0 0 C7.01365685 4.12500082 12.20547014 9.61127972 14.6875 17.4375 C16.57055108 26.26199426 15.50561259 33.93380479 11.140625 41.8359375 C7.28227812 47.50412751 2.17761796 51.0256326 -4.375 53.0625 C-7.20150688 53.48334605 -9.95820518 53.53990904 -12.8125 53.5 C-13.93736816 53.48972778 -13.93736816 53.48972778 -15.08496094 53.47924805 C-22.35589828 53.26758862 -26.5714281 51.54748418 -32.125 46.625 C-32.8675 45.779375 -33.61 44.93375 -34.375 44.0625 C-35.096875 43.258125 -35.81875 42.45375 -36.5625 41.625 C-41.37562206 34.82024122 -40.98230342 27.06956202 -40.375 19.0625 C-39.70741293 16.25083766 -38.86485293 14.61653359 -37.375 12.0625 C-36.818125 11.051875 -36.26125 10.04125 -35.6875 9 C-27.17508462 -1.81306819 -12.83223082 -5.76059898 0 0 Z M-31.0625 6.3125 C-36.98750627 13.3584534 -39.78430128 19.15783266 -39.6484375 28.41015625 C-38.83517339 36.29881809 -34.21562711 42.90832109 -28.375 48.0625 C-21.47012859 52.94542699 -13.54946455 52.9997613 -5.375 52.0625 C1.64086665 50.1562597 6.9990901 45.02072997 10.94921875 39.06640625 C14.27931438 32.69832864 14.71321117 26.10238917 13.625 19.0625 C10.60297691 10.40451414 5.46646889 4.94336094 -2.6640625 0.93359375 C-12.89358812 -2.3534152 -23.00271602 -0.43522612 -31.0625 6.3125 Z " fill="#BEA555" transform="translate(41.375,2.9375)"/>
<path d="M0 0 C3.3 0 6.6 0 10 0 C10.33 1.65 10.66 3.3 11 5 C14.65316671 3.75023244 15.78065836 3.32901247 18 0 C20.1640625 -0.29296875 20.1640625 -0.29296875 22.625 -0.1875 C23.44226563 -0.16042969 24.25953125 -0.13335938 25.1015625 -0.10546875 C26.04128906 -0.05326172 26.04128906 -0.05326172 27 0 C27.27734375 2.2734375 27.27734375 2.2734375 27 5 C25.06640625 6.9140625 25.06640625 6.9140625 22.5625 8.625 C18.83451733 11.06145752 18.83451733 11.06145752 17 15 C14.69 15 12.38 15 10 15 C9.79375 14.05125 9.5875 13.1025 9.375 12.125 C8.31250817 8.71722003 8.31250817 8.71722003 5 7.8125 C3.515 7.4103125 3.515 7.4103125 2 7 C0 4 0 4 0 0 Z " fill="#211D14" transform="translate(15,20)"/>
<path d="M0 0 C2 3.75 2 3.75 2 6 C2.66 6.33 3.32 6.66 4 7 C4.66 7.33 5.32 7.66 6 8 C5.23416118 16.04130759 0.89621106 20.36596877 -4.90234375 25.484375 C-9.44926799 28.76967594 -13.38504032 29.29441381 -18.9375 29.3125 C-20.71447266 29.33763672 -20.71447266 29.33763672 -22.52734375 29.36328125 C-26.30089716 28.96852257 -28.73791176 27.88752892 -32 26 C-32 25.34 -32 24.68 -32 24 C-30.4375 22.875 -30.4375 22.875 -28 22 C-24.25 22.875 -24.25 22.875 -21 24 C-21 24.99 -21 25.98 -21 27 C-20.01 27 -19.02 27 -18 27 C-17.67 26.34 -17.34 25.68 -17 25 C-17 25.66 -17 26.32 -17 27 C-16.34 26.67 -15.68 26.34 -15 26 C-15.33 25.34 -15.66 24.68 -16 24 C-14.68 24.33 -13.36 24.66 -12 25 C-12 24.34 -12 23.68 -12 23 C-10.68733482 21.64631404 -9.35432675 20.31200404 -8 19 C-8 18.67 -8 18.34 -8 18 C-6.35 18 -4.7 18 -3 18 C-1.19380477 13.53763531 -0.88341499 10.68965706 -2 6 C-1.34 6 -0.68 6 0 6 C0 4.02 0 2.04 0 0 Z " fill="#595231" transform="translate(48,26)"/>
<path d="M0 0 C5.87170139 3.42922993 9.8168377 8.77592704 12.4375 15 C12.4375 16.32 12.4375 17.64 12.4375 19 C11.7775 19 11.1175 19 10.4375 19 C9.7775 17.35 9.1175 15.7 8.4375 14 C7.4475 14.495 7.4475 14.495 6.4375 15 C5.9425 13.515 5.9425 13.515 5.4375 12 C6.0975 12 6.7575 12 7.4375 12 C7.4375 11.34 7.4375 10.68 7.4375 10 C6.4475 10.33 5.4575 10.66 4.4375 11 C4.375625 10.4225 4.31375 9.845 4.25 9.25 C3.09176021 6.04256673 1.22609442 4.88067996 -1.5625 3 C-4.12374846 2.09602995 -5.8091497 2 -8.5625 2 C-10.89583333 2 -13.22916667 2 -15.5625 2 C-15.5625 1.34 -15.5625 0.68 -15.5625 0 C-17.5425 0.33 -19.5225 0.66 -21.5625 1 C-19.9125 1.33 -18.2625 1.66 -16.5625 2 C-17.5525 2.33 -18.5425 2.66 -19.5625 3 C-20.29573796 5.01508358 -20.29573796 5.01508358 -20.5625 7 C-20.8925 6.34 -21.2225 5.68 -21.5625 5 C-22.42875 5.680625 -23.295 6.36125 -24.1875 7.0625 C-27.5625 9 -27.5625 9 -30.9375 8.75 C-32.236875 8.37875 -32.236875 8.37875 -33.5625 8 C-32.17052671 4.61743279 -30.7599504 3.16311318 -27.625 1.3125 C-26.93535156 0.89613281 -26.24570312 0.47976562 -25.53515625 0.05078125 C-18.27460337 -3.81672117 -7.38269258 -3.35372316 0 0 Z " fill="#1A160E" transform="translate(41.5625,5)"/>
<path d="M0 0 C2.14255793 -0.38932856 2.14255793 -0.38932856 4 -1 C4.33 0.98 4.66 2.96 5 5 C4.38125 4.814375 3.7625 4.62875 3.125 4.4375 C0.95839822 3.76313824 0.95839822 3.76313824 -1 5 C-1.33 4.34 -1.66 3.68 -2 3 C-4.06033427 7.12066854 -3.89131913 9.54340437 -3 14 C-3.33 14.66 -3.66 15.32 -4 16 C-4.2236068 18.9254644 -4.2236068 18.9254644 -3 21 C-1.68 21 -0.36 21 1 21 C1 21.66 1 22.32 1 23 C2.32 23.33 3.64 23.66 5 24 C4.34 24.33 3.68 24.66 3 25 C3.33 25.99 3.66 26.98 4 28 C4.33 28.99 4.66 29.98 5 31 C4.195625 31.144375 3.39125 31.28875 2.5625 31.4375 C0.07896294 31.74135249 0.07896294 31.74135249 -1 33 C-1.99 32.67 -2.98 32.34 -4 32 C-5.4477922 29.10441559 -6 27.25811062 -6 24 C-6.165 23.278125 -6.33 22.55625 -6.5 21.8125 C-7.15043931 18.15377889 -7.06296614 14.71500247 -7 11 C-7.33 13.64 -7.66 16.28 -8 19 C-8.33 19 -8.66 19 -9 19 C-9.51386287 11.9058376 -8.85310839 7.96610331 -5 2 C-5.33 1.34 -5.66 0.68 -6 0 C-3 -1 -3 -1 0 0 Z " fill="#6E693A" transform="translate(14,13)"/>
<path d="M0 0 C2.3125 0.0625 2.3125 0.0625 5 1 C9 6.18918919 9 6.18918919 9 8 C9.66 8 10.32 8 11 8 C11 8.99 11 9.98 11 11 C11.66 11.33 12.32 11.66 13 12 C13.625 14.5625 13.625 14.5625 14 17 C14.66 17 15.32 17 16 17 C16.33 16.34 16.66 15.68 17 15 C17 19.29 17 23.58 17 28 C16.01 27.67 15.02 27.34 14 27 C13.67 27.66 13.34 28.32 13 29 C12.80470703 28.13568359 12.80470703 28.13568359 12.60546875 27.25390625 C11.82303486 24.34123301 10.62875704 21.66335867 9.42578125 18.90234375 C9.28527344 18.27457031 9.14476562 17.64679687 9 17 C9.66 16.01 10.32 15.02 11 14 C10.01 14.33 9.02 14.66 8 15 C7.7525 14.195625 7.505 13.39125 7.25 12.5625 C6.26294207 9.891337 6.26294207 9.891337 4.0625 9 C1.88817317 8.78180832 1.88817317 8.78180832 0.25 10.4375 C-0.1625 10.953125 -0.575 11.46875 -1 12 C-1 11.34 -1 10.68 -1 10 C-1.99 9.67 -2.98 9.34 -4 9 C-4.6875 6.9375 -4.6875 6.9375 -5 5 C-4.01 5.33 -3.02 5.66 -2 6 C-1.855625 5.195625 -1.71125 4.39125 -1.5625 3.5625 C-1 1 -1 1 0 0 Z " fill="#70643D" transform="translate(38,7)"/>
<path d="M0 0 C2.0625 1 2.0625 1 3.4375 4.4375 C4.68368651 8.27510792 4.68368651 8.27510792 8.1875 9.1875 C9.13625 9.455625 10.085 9.72375 11.0625 10 C11.9375 12.125 11.9375 12.125 12.0625 14 C10.4125 14.33 8.7625 14.66 7.0625 15 C6.7325 15.99 6.4025 16.98 6.0625 18 C4.7425 17.67 3.4225 17.34 2.0625 17 C2.0625 16.34 2.0625 15.68 2.0625 15 C0.0825 15.33 -1.8975 15.66 -3.9375 16 C-4.2675 13.36 -4.5975 10.72 -4.9375 8 C-4.2775 8 -3.6175 8 -2.9375 8 C-3.2675 5.69 -3.5975 3.38 -3.9375 1 C-1.9375 0 -1.9375 0 0 0 Z " fill="#817645" transform="translate(12.9375,19)"/>
<path d="M0 0 C8.19370242 -0.70098215 14.20501422 0.19626005 21 5 C27.55504863 10.5628729 30.97042683 16.44389196 32 25 C32.37192695 33.57831522 30.11900317 41.35141071 24.359375 47.8515625 C19.95150111 51.88218593 15.13564796 54.79985226 9.0625 55.1875 C8.0415625 55.0946875 8.0415625 55.0946875 7 55 C8.94514847 54.00801741 10.87827713 53.05069695 12.89453125 52.2109375 C19.92212119 49.14799606 24.00636805 44.27984611 27.9375 37.8125 C30.14104434 29.90566442 30.22649681 22.52280462 26.5625 15.0625 C22.41283919 8.44807547 17.82378509 5.06013936 10.30859375 2.9765625 C6.88120321 2.22260575 3.46358727 1.5616628 0 1 C0 0.67 0 0.34 0 0 Z " fill="#CDC478" transform="translate(25,1)"/>
<path d="M0 0 C0.99 0.66 1.98 1.32 3 2 C1.68 4.31 0.36 6.62 -1 9 C-0.67 8.67 -0.34 8.34 0 8 C0.81396515 10.54364108 0.99046807 12.48612847 0.9375 15.1875 C1.0009999 19.06099378 1.63611625 22.34433016 2.5625 26.08203125 C3 28 3 28 3 30 C3.495 30.495 3.99 30.99 4.5 31.5 C4.995 31.995 5.49 32.49 6 33 C6 33.66 6 34.32 6 35 C6.66 35.33 7.32 35.66 8 36 C6.515 36.495 6.515 36.495 5 37 C-1.23615237 30.57590879 -4.98277327 25.21953455 -5.4375 16.125 C-5.29125451 10.88453671 -3.85307366 3.85307366 0 0 Z " fill="#272315" transform="translate(7,13)"/>
<path d="M0 0 C3.3 0 6.6 0 10 0 C12.44038726 4.88077452 13.46845421 7.52667068 12 13 C12.99 13 13.98 13 15 13 C15 12.34 15 11.68 15 11 C15.66 11 16.32 11 17 11 C17 12.32 17 13.64 17 15 C14.69 15 12.38 15 10 15 C9.79375 14.05125 9.5875 13.1025 9.375 12.125 C8.31250817 8.71722003 8.31250817 8.71722003 5 7.8125 C3.515 7.4103125 3.515 7.4103125 2 7 C0 4 0 4 0 0 Z " fill="#272218" transform="translate(15,20)"/>
<path d="M0 0 C2.1640625 0.2421875 2.1640625 0.2421875 4.625 0.875 C5.44226563 1.07867187 6.25953125 1.28234375 7.1015625 1.4921875 C8.04128906 1.74355469 8.04128906 1.74355469 9 2 C9 2.99 9 3.98 9 5 C9.99 5 10.98 5 12 5 C12.33 4.34 12.66 3.68 13 3 C13 3.66 13 4.32 13 5 C13.66 4.67 14.32 4.34 15 4 C14.67 3.34 14.34 2.68 14 2 C14.53625 2.226875 15.0725 2.45375 15.625 2.6875 C18.19714407 3.25147416 18.19714407 3.25147416 21 1.5 C24.26594121 -0.13297061 24.74195318 -0.0672912 28 1 C26.89932004 1.81721717 25.79430269 2.62859451 24.6875 3.4375 C24.07261719 3.88996094 23.45773438 4.34242187 22.82421875 4.80859375 C19.05992572 7.26707207 15.56853713 7.1940123 11.1875 7.25 C9.38345703 7.28867187 9.38345703 7.28867187 7.54296875 7.328125 C3.71011955 6.9731533 1.30284973 5.92202587 -2 4 C-2 2 -2 2 0 0 Z " fill="#332D1C" transform="translate(18,48)"/>
<path d="M0 0 C2.46800047 1.15173355 4.04783565 2.04783565 6 4 C6.66 4.33 7.32 4.66 8 5 C8.40729228 7.32156597 8.74438677 9.6568787 9 12 C5.75370153 13.08209949 5.12563502 12.78140875 2 12 C-1.11785113 12.64644661 -1.11785113 12.64644661 -2 15 C-2.66 14.34 -3.32 13.68 -4 13 C-4 12.34 -4 11.68 -4 11 C-4.31802943 9.33034549 -4.64984951 7.66321482 -5 6 C-2.69 6.33 -0.38 6.66 2 7 C1.484375 6.401875 0.96875 5.80375 0.4375 5.1875 C-0.036875 4.465625 -0.51125 3.74375 -1 3 C-0.67 2.01 -0.34 1.02 0 0 Z " fill="#6A4F28" transform="translate(17,37)"/>
<path d="M0 0 C0.33 0.66 0.66 1.32 1 2 C1.99 1.67 2.98 1.34 4 1 C4.33 2.32 4.66 3.64 5 5 C2 7 2 7 -1 7 C-1.33 8.65 -1.66 10.3 -2 12 C-2.99 12.33 -3.98 12.66 -5 13 C-5 12.34 -5 11.68 -5 11 C-5.99 11 -6.98 11 -8 11 C-8.66 9.35 -9.32 7.7 -10 6 C-8.906875 5.566875 -7.81375 5.13375 -6.6875 4.6875 C-3.90591207 3.50504359 -1.93638061 2.39199957 0 0 Z " fill="#726741" transform="translate(40,39)"/>
<path d="M0 0 C2.14255793 -0.38932856 2.14255793 -0.38932856 4 -1 C4.33 0.98 4.66 2.96 5 5 C4.38125 4.814375 3.7625 4.62875 3.125 4.4375 C0.95839822 3.76313824 0.95839822 3.76313824 -1 5 C-1.33 4.34 -1.66 3.68 -2 3 C-2.45375 3.825 -2.9075 4.65 -3.375 5.5 C-3.91125 6.325 -4.4475 7.15 -5 8 C-5.66 8 -6.32 8 -7 8 C-7.33 11.63 -7.66 15.26 -8 19 C-8.33 19 -8.66 19 -9 19 C-9.51386287 11.9058376 -8.85310839 7.96610331 -5 2 C-5.33 1.34 -5.66 0.68 -6 0 C-3 -1 -3 -1 0 0 Z " fill="#6A5C33" transform="translate(14,13)"/>
<path d="M0 0 C1.98828125 0.828125 1.98828125 0.828125 3.0703125 2.71875 C5.50021759 10.5672135 5.50021759 10.5672135 3.98828125 14.828125 C1.26401814 12.47535231 0.17410495 10.20316169 -1.01171875 6.828125 C-1.67171875 6.828125 -2.33171875 6.828125 -3.01171875 6.828125 C-3.34171875 4.848125 -3.67171875 2.868125 -4.01171875 0.828125 C-2.01171875 -0.171875 -2.01171875 -0.171875 0 0 Z " fill="#91874E" transform="translate(13.01171875,19.171875)"/>
<path d="M0 0 C-0.99 0 -1.98 0 -3 0 C-3.33 1.32 -3.66 2.64 -4 4 C-4.33 3.34 -4.66 2.68 -5 2 C-5.86625 2.680625 -6.7325 3.36125 -7.625 4.0625 C-11 6 -11 6 -14.375 5.75 C-15.24125 5.5025 -16.1075 5.255 -17 5 C-13.48424295 -3.49641288 -7.82124011 -2.18994723 0 0 Z " fill="#4A3C21" transform="translate(25,8)"/>
<path d="M0 0 C0.66 0 1.32 0 2 0 C2 0.99 2 1.98 2 3 C4.97 3.495 4.97 3.495 8 4 C8.33 4.99 8.66 5.98 9 7 C7.35 7 5.7 7 4 7 C3.7525 7.639375 3.505 8.27875 3.25 8.9375 C2 11 2 11 -0.125 11.75 C-1.053125 11.87375 -1.053125 11.87375 -2 12 C-1.125 6.25 -1.125 6.25 0 4 C0 2.68 0 1.36 0 0 Z " fill="#9A8B5B" transform="translate(29,13)"/>
<path d="M0 0 C8.14469302 -0.69678933 14.27257988 0.14561777 21 5 C23.90711955 7.82676014 26.50742791 10.80421624 29 14 C28.01 15.485 28.01 15.485 27 17 C26.68289062 16.40832031 26.36578125 15.81664062 26.0390625 15.20703125 C22.16355148 8.64435651 18.21949652 5.44415387 11 3 C7.35182966 2.12370118 3.7209475 1.47396099 0 1 C0 0.67 0 0.34 0 0 Z " fill="#C4B071" transform="translate(25,1)"/>
<path d="M0 0 C1.32 0.33 2.64 0.66 4 1 C3.01 1.495 3.01 1.495 2 2 C2.33 2.99 2.66 3.98 3 5 C3.33 5.99 3.66 6.98 4 8 C3.195625 8.144375 2.39125 8.28875 1.5625 8.4375 C-0.92103706 8.74135249 -0.92103706 8.74135249 -2 10 C-2.99 9.67 -3.98 9.34 -5 9 C-6.1875 6.4375 -6.1875 6.4375 -7 4 C-6.030625 3.71125 -5.06125 3.4225 -4.0625 3.125 C-0.89335797 2.35785318 -0.89335797 2.35785318 0 0 Z " fill="#654C26" transform="translate(15,36)"/>
<path d="M0 0 C0.99 0 1.98 0 3 0 C2.814375 0.928125 2.62875 1.85625 2.4375 2.8125 C1.75876119 6.01343771 1.75876119 6.01343771 3 9 C1.68 10.32 0.36 11.64 -1 13 C-1.33 12.34 -1.66 11.68 -2 11 C-3.98 11.99 -3.98 11.99 -6 13 C-6 12.34 -6 11.68 -6 11 C-5.34 11 -4.68 11 -4 11 C-4 9.68 -4 8.36 -4 7 C-3.02149805 5.97895449 -2.02019573 4.9793879 -1 4 C-0.28552357 1.89667109 -0.28552357 1.89667109 0 0 Z " fill="#7F794A" transform="translate(45,30)"/>
<path d="M0 0 C1.25 7.625 1.25 7.625 -1 11 C-2.32 10.67 -3.64 10.34 -5 10 C-4.67 7.69 -4.34 5.38 -4 3 C-4.66 3 -5.32 3 -6 3 C-6 2.34 -6 1.68 -6 1 C-3 0 -3 0 0 0 Z " fill="#6E552C" transform="translate(26,5)"/>
<path d="M0 0 C-2 2 -2 2 -3.8828125 2.0546875 C-4.99269531 1.96574219 -4.99269531 1.96574219 -6.125 1.875 C-14.01045199 1.71045606 -19.35125813 5.91613231 -25 11 C-25 10.01 -25 9.02 -25 8 C-17.21256039 0.22986581 -10.62087648 -1.55325071 0 0 Z " fill="#96743A" transform="translate(32,2)"/>
<path d="M0 0 C0.77772405 2.33317216 1.42415568 4.61435923 2 7 C0.35 7.33 -1.3 7.66 -3 8 C-3 8.66 -3 9.32 -3 10 C-5.16147703 8.91926148 -6.41039672 7.80636736 -8 6 C-8 5.34 -8 4.68 -8 4 C-5.69 4 -3.38 4 -1 4 C-0.67 2.68 -0.34 1.36 0 0 Z " fill="#7A6A41" transform="translate(33,31)"/>
<path d="M0 0 C0.66 0 1.32 0 2 0 C2.84384675 1.41042956 3.67469496 2.82864132 4.5 4.25 C5.19609375 5.43335938 5.19609375 5.43335938 5.90625 6.640625 C7 9 7 9 7 13 C6.34 13 5.68 13 5 13 C4.34 11.35 3.68 9.7 3 8 C2.01 8.495 2.01 8.495 1 9 C0.67 8.01 0.34 7.02 0 6 C0.66 6 1.32 6 2 6 C2 5.34 2 4.68 2 4 C1.01 4.33 0.02 4.66 -1 5 C-1.33 4.34 -1.66 3.68 -2 3 C-1.34 3 -0.68 3 0 3 C0 2.01 0 1.02 0 0 Z " fill="#211D13" transform="translate(47,11)"/>
<path d="M0 0 C2 1 2 1 3.25 3.875 C3.4975 4.90625 3.745 5.9375 4 7 C3.01 8.485 3.01 8.485 2 10 C0.68 9.67 -0.64 9.34 -2 9 C-2.33 6.69 -2.66 4.38 -3 2 C-2.34 2 -1.68 2 -1 2 C-0.67 1.34 -0.34 0.68 0 0 Z " fill="#777240" transform="translate(11,25)"/>
<path d="M0 0 C1.98 0 3.96 0 6 0 C6.25 2.29296875 6.25 2.29296875 6 5 C4.25 6.80078125 4.25 6.80078125 2 8.3125 C1.2575 8.82425781 0.515 9.33601563 -0.25 9.86328125 C-0.8275 10.23839844 -1.405 10.61351562 -2 11 C-2.33 10.01 -2.66 9.02 -3 8 C-2.360625 7.5875 -1.72125 7.175 -1.0625 6.75 C1.20990931 4.82189513 1.60196439 3.88575819 2 1 C1.34 0.67 0.68 0.34 0 0 Z " fill="#3F3622" transform="translate(36,20)"/>
<path d="M0 0 C0.66 0 1.32 0 2 0 C1.52353853 5.00284542 0.06711438 8.03079315 -3 12 C-3.99 12.66 -4.98 13.32 -6 14 C-5.46884894 9.48521602 -3.63379708 6.65333143 -1 3 C-1.66 2.67 -2.32 2.34 -3 2 C-2.01 2 -1.02 2 0 2 C0 1.34 0 0.68 0 0 Z " fill="#1D1A11" transform="translate(52,34)"/>
<path d="M0 0 C1.32 0 2.64 0 4 0 C4 1.65 4 3.3 4 5 C4.66 5 5.32 5 6 5 C6.33 3.68 6.66 2.36 7 1 C7.12375 1.639375 7.2475 2.27875 7.375 2.9375 C7.684375 3.9584375 7.684375 3.9584375 8 5 C8.66 5.33 9.32 5.66 10 6 C7.69 6.66 5.38 7.32 3 8 C0.37613513 4.93882432 0 4.26826873 0 0 Z " fill="#433C26" transform="translate(15,20)"/>
<path d="M0 0 C1.9453125 0.2421875 1.9453125 0.2421875 4.125 0.875 C4.84945313 1.07867187 5.57390625 1.28234375 6.3203125 1.4921875 C6.87460937 1.65976562 7.42890625 1.82734375 8 2 C4.25 3.125 4.25 3.125 2 2 C2 2.66 2 3.32 2 4 C4.97 4.495 4.97 4.495 8 5 C8 5.66 8 6.32 8 7 C1.375 6.25 1.375 6.25 -2 4 C-2 2 -2 2 0 0 Z " fill="#1A150D" transform="translate(18,48)"/>
<path d="M0 0 C0.99 0.66 1.98 1.32 3 2 C2.0409375 2.1546875 2.0409375 2.1546875 1.0625 2.3125 C0.381875 2.539375 -0.29875 2.76625 -1 3 C-1.33 3.99 -1.66 4.98 -2 6 C-6.455 6.495 -6.455 6.495 -11 7 C-11.33 6.01 -11.66 5.02 -12 4 C-11.0925 4.2475 -10.185 4.495 -9.25 4.75 C-5.93064639 5.38522965 -5.93064639 5.38522965 -3.75 3.125 C-3.1725 2.42375 -2.595 1.7225 -2 1 C-1.34 0.67 -0.68 0.34 0 0 Z " fill="#332D1F" transform="translate(39,37)"/>
<path d="M0 0 C0.268125 0.598125 0.53625 1.19625 0.8125 1.8125 C1.98493467 3.97224808 3.19369282 5.35790256 5 7 C4.01 8.32 3.02 9.64 2 11 C2 9.68 2 8.36 2 7 C0.68 7 -0.64 7 -2 7 C-1.34 5.35 -0.68 3.7 0 2 C-0.99 2 -1.98 2 -3 2 C-3.33 3.32 -3.66 4.64 -4 6 C-4.33 5.34 -4.66 4.68 -5 4 C-4.67 3.01 -4.34 2.02 -4 1 C-1.9375 0.3125 -1.9375 0.3125 0 0 Z " fill="#765D34" transform="translate(24,33)"/>
<path d="M0 0 C1.11375 0.185625 1.11375 0.185625 2.25 0.375 C2.58 1.695 2.91 3.015 3.25 4.375 C-0.25776784 5.97855101 -2.89354879 6.59536864 -6.75 6.375 C-3.42692308 0.46730769 -3.42692308 0.46730769 0 0 Z " fill="#4A4025" transform="translate(42.75,43.625)"/>
<path d="M0 0 C2.46800047 1.15173355 4.04783565 2.04783565 6 4 C6.66 4.33 7.32 4.66 8 5 C8 5.66 8 6.32 8 7 C5.75 7.25 5.75 7.25 3 7 C0.6875 5 0.6875 5 -1 3 C-0.67 2.01 -0.34 1.02 0 0 Z " fill="#3C301B" transform="translate(17,37)"/>
<path d="M0 0 C2.475 0.495 2.475 0.495 5 1 C5 3.31 5 5.62 5 8 C4.01 7.67 3.02 7.34 2 7 C1.67 7.66 1.34 8.32 1 9 C0.67 6.03 0.34 3.06 0 0 Z " fill="#7F6F40" transform="translate(50,27)"/>
<path d="M0 0 C2.3125 0.0625 2.3125 0.0625 5 1 C7.3125 4.0625 7.3125 4.0625 9 7 C6.36 6.67 3.72 6.34 1 6 C1.33 5.34 1.66 4.68 2 4 C1.01 3.01 0.02 2.02 -1 1 C-0.67 0.67 -0.34 0.34 0 0 Z " fill="#5D512E" transform="translate(38,7)"/>
<path d="M0 0 C1.2039337 3.75399798 1.09877617 7.33217412 1.0625 11.25 C1.05347656 12.51328125 1.04445313 13.7765625 1.03515625 15.078125 C1.02355469 16.04234375 1.01195312 17.0065625 1 18 C0.34 17.67 -0.32 17.34 -1 17 C-2.81749102 11.24461178 -1.23396155 5.73129248 0 0 Z " fill="#37311C" transform="translate(7,21)"/>
<path d="M0 0 C1.98 0 3.96 0 6 0 C6.33 1.65 6.66 3.3 7 5 C6.01 5 5.02 5 4 5 C3.67 4.34 3.34 3.68 3 3 C2.67 3.99 2.34 4.98 2 6 C1.34 5.67 0.68 5.34 0 5 C0 3.35 0 1.7 0 0 Z " fill="#1B170F" transform="translate(19,20)"/>
<path d="M0 0 C1.32 0.33 2.64 0.66 4 1 C4.33 2.65 4.66 4.3 5 6 C4.071875 5.649375 3.14375 5.29875 2.1875 4.9375 C-0.9802953 3.67617372 -0.9802953 3.67617372 -4 5 C-4 4.01 -4 3.02 -4 2 C-2.68 2 -1.36 2 0 2 C0 1.34 0 0.68 0 0 Z " fill="#806537" transform="translate(25,14)"/>
<path d="M0 0 C5.875 3.625 5.875 3.625 7 7 C6.01 7 5.02 7 4 7 C3.67 7.66 3.34 8.32 3 9 C2.34 8.34 1.68 7.68 1 7 C1 6.34 1 5.68 1 5 C0.68197057 3.33034549 0.35015049 1.66321482 0 0 Z " fill="#463C22" transform="translate(12,43)"/>
<path d="M0 0 C0.66 0.33 1.32 0.66 2 1 C1.67 2.65 1.34 4.3 1 6 C0.01 6.33 -0.98 6.66 -2 7 C-2.66 5.35 -3.32 3.7 -4 2 C-2.125 0.9375 -2.125 0.9375 0 0 Z " fill="#817A5E" transform="translate(34,43)"/>
<path d="M0 0 C0.99 0.33 1.98 0.66 3 1 C3.33 2.65 3.66 4.3 4 6 C3.38125 5.814375 2.7625 5.62875 2.125 5.4375 C-0.04160178 4.76313824 -0.04160178 4.76313824 -2 6 C-2.33 4.68 -2.66 3.36 -3 2 C-2.01 1.34 -1.02 0.68 0 0 Z " fill="#614825" transform="translate(15,12)"/>
<path d="M0 0 C0.61875 0.804375 1.2375 1.60875 1.875 2.4375 C3.74164041 5.03874519 3.74164041 5.03874519 6 6 C6 6.66 6 7.32 6 8 C6.66 8.33 7.32 8.66 8 9 C7.01 9.33 6.02 9.66 5 10 C3.96704564 8.90716423 2.94892165 7.80029421 1.9375 6.6875 C1.36902344 6.07261719 0.80054688 5.45773438 0.21484375 4.82421875 C-0.38650391 3.92123047 -0.38650391 3.92123047 -1 3 C-0.67 2.01 -0.34 1.02 0 0 Z " fill="#120F0A" transform="translate(7,40)"/>
<path d="M0 0 C0.99 0.66 1.98 1.32 3 2 C1.68 4.31 0.36 6.62 -1 9 C-1.99 9 -2.98 9 -4 9 C-2.94124926 5.59687262 -1.99097846 2.98646769 0 0 Z " fill="#1F1C11" transform="translate(7,13)"/>
<path d="M0 0 C0 2 0 4 0 6 C-0.66 6 -1.32 6 -2 6 C-2.66 7.32 -3.32 8.64 -4 10 C-4.66 9.34 -5.32 8.68 -6 8 C-2.25 1.125 -2.25 1.125 0 0 Z " fill="#948E5A" transform="translate(42,29)"/>
<path d="M0 0 C1.98 0 3.96 0 6 0 C6.33 1.32 6.66 2.64 7 4 C5.68 4 4.36 4 3 4 C3 4.99 3 5.98 3 7 C2.34 7 1.68 7 1 7 C1.20625 6.21625 1.4125 5.4325 1.625 4.625 C1.74875 3.75875 1.8725 2.8925 2 2 C1.34 1.34 0.68 0.68 0 0 Z " fill="#736740" transform="translate(27,5)"/>
<path d="M0 0 C0.99 0 1.98 0 3 0 C2.125 6.875 2.125 6.875 1 8 C-0.66617115 8.04063832 -2.33388095 8.042721 -4 8 C-3.525625 7.236875 -3.05125 6.47375 -2.5625 5.6875 C-0.89893903 3.03589452 -0.89893903 3.03589452 0 0 Z " fill="#969058" transform="translate(45,30)"/>
<path d="M0 0 C0.99 0 1.98 0 3 0 C3 0.66 3 1.32 3 2 C3.99 2.33 4.98 2.66 6 3 C5.67 3.66 5.34 4.32 5 5 C4.34 4.67 3.68 4.34 3 4 C3 4.66 3 5.32 3 6 C2.01 6 1.02 6 0 6 C0 4.02 0 2.04 0 0 Z " fill="#070605" transform="translate(27,27)"/>
<path d="M0 0 C0.99 0 1.98 0 3 0 C2.34 1.65 1.68 3.3 1 5 C2.32 5 3.64 5 5 5 C4.67 6.32 4.34 7.64 4 9 C3.34 8.34 2.68 7.68 2 7 C1.34 6.67 0.68 6.34 0 6 C0 4.02 0 2.04 0 0 Z " fill="#654C2A" transform="translate(21,35)"/>
<path d="M0 0 C0.66 1.32 1.32 2.64 2 4 C0.68 5.32 -0.64 6.64 -2 8 C-2.33 7.01 -2.66 6.02 -3 5 C-1.5625 2.3125 -1.5625 2.3125 0 0 Z " fill="#7B774C" transform="translate(43,30)"/>
<path d="M0 0 C-0.66 0 -1.32 0 -2 0 C-2.33 0.66 -2.66 1.32 -3 2 C-6 4 -6 4 -8.1875 3.625 C-8.785625 3.41875 -9.38375 3.2125 -10 3 C-4.37755102 -1.45918367 -4.37755102 -1.45918367 0 0 Z " fill="#766238" transform="translate(46,26)"/>
<path d="M0 0 C0.639375 0.2475 1.27875 0.495 1.9375 0.75 C2.2675 1.74 2.5975 2.73 2.9375 3.75 C0.6275 4.08 -1.6825 4.41 -4.0625 4.75 C-4.0625 3.43 -4.0625 2.11 -4.0625 0.75 C-2.0625 -0.25 -2.0625 -0.25 0 0 Z " fill="#272217" transform="translate(37.0625,3.25)"/>
<path d="M0 0 C-4.75 4 -4.75 4 -7 4 C-7.33 3.01 -7.66 2.02 -8 1 C-4.93251126 -0.86240388 -3.40254489 -1.2151946 0 0 Z " fill="#19150E" transform="translate(46,49)"/>
<path d="M0 0 C1.32 0.33 2.64 0.66 4 1 C3.01 1.495 3.01 1.495 2 2 C1.34786708 4.02463255 1.34786708 4.02463255 1 6 C-0.32 6 -1.64 6 -3 6 C-2 4 -1 2 0 0 Z " fill="#6C5B31" transform="translate(15,36)"/>
<path d="M0 0 C0.66 0 1.32 0 2 0 C1.25 5.75 1.25 5.75 -1 8 C-1.33 7.01 -1.66 6.02 -2 5 C-1.67 4.34 -1.34 3.68 -1 3 C-1.66 2.67 -2.32 2.34 -3 2 C-2.01 2 -1.02 2 0 2 C0 1.34 0 0.68 0 0 Z " fill="#15130D" transform="translate(52,34)"/>
<path d="M0 0 C0.33 0.66 0.66 1.32 1 2 C1.99 2 2.98 2 4 2 C4 1.34 4 0.68 4 0 C4.66 0 5.32 0 6 0 C6 1.32 6 2.64 6 4 C3.69 4 1.38 4 -1 4 C-0.67 2.68 -0.34 1.36 0 0 Z " fill="#302A1D" transform="translate(26,31)"/>
<path d="M0 0 C1.32 0 2.64 0 4 0 C3.67 0.99 3.34 1.98 3 3 C3.33 3.99 3.66 4.98 4 6 C3.01 6.33 2.02 6.66 1 7 C0 4 0 4 0 0 Z " fill="#71663D" transform="translate(45,15)"/>
<path d="M0 0 C0.99 0.33 1.98 0.66 3 1 C2.071875 1.598125 1.14375 2.19625 0.1875 2.8125 C-2.20254718 4.45272845 -4.08470253 5.8718917 -6 8 C-6 7.01 -6 6.02 -6 5 C-3.1875 2.25 -3.1875 2.25 0 0 Z " fill="#B1893F" transform="translate(13,5)"/>
<path d="M0 0 C0.99 0.33 1.98 0.66 3 1 C2.67 2.32 2.34 3.64 2 5 C2.99 4.67 3.98 4.34 5 4 C5.33 4.66 5.66 5.32 6 6 C5.01 6 4.02 6 3 6 C3 6.66 3 7.32 3 8 C2.01 7.67 1.02 7.34 0 7 C0 4.69 0 2.38 0 0 Z " fill="#897645" transform="translate(26,7)"/>
<path d="M0 0 C4.17799643 2.08899822 4.92391901 3.05544612 7 7 C6.34 7.66 5.68 8.32 5 9 C3.35 6.03 1.7 3.06 0 0 Z " fill="#B0A965" transform="translate(47,9)"/>
<path d="M0 0 C0.33 0.99 0.66 1.98 1 3 C0.01 3.99 -0.98 4.98 -2 6 C-2.99 5.67 -3.98 5.34 -5 5 C-3.35 3.35 -1.7 1.7 0 0 Z " fill="#1B160E" transform="translate(13,7)"/>
<path d="M0 0 C0.99 0.66 1.98 1.32 3 2 C3 2.99 3 3.98 3 5 C1.68 5 0.36 5 -1 5 C-1.33 3.68 -1.66 2.36 -2 1 C-1.34 0.67 -0.68 0.34 0 0 Z " fill="#605130" transform="translate(28,43)"/>
<path d="M0 0 C0.33 2.31 0.66 4.62 1 7 C0.01 6.67 -0.98 6.34 -2 6 C-3.1875 3.4375 -3.1875 3.4375 -4 1 C-1 0 -1 0 0 0 Z " fill="#60532F" transform="translate(12,39)"/>
<path d="M0 0 C0.66 0 1.32 0 2 0 C2 0.66 2 1.32 2 2 C2.66 2 3.32 2 4 2 C3.67 3.65 3.34 5.3 3 7 C2.34 7 1.68 7 1 7 C0.34 5.02 -0.32 3.04 -1 1 C-0.67 0.67 -0.34 0.34 0 0 Z " fill="#6A613A" transform="translate(48,23)"/>
<path d="M0 0 C2.62386487 3.06117568 3 3.73173127 3 8 C2.34 8 1.68 8 1 8 C0.26919734 6.02253397 -0.39421747 4.01927511 -1 2 C-0.67 1.34 -0.34 0.68 0 0 Z " fill="#110F0A" transform="translate(51,16)"/>
</svg>
